<?xml version="1.0" encoding="UTF-8"?>
<svg xmlns="http://www.w3.org/2000/svg" id="milo-intelligence" width="1024" height="880" viewBox="0 0 1024 880">
  <defs>
    <style>.cls-1{fill:#ff580f;}.cls-2{fill:#ff793f;}.cls-3{fill:#cfcfcd;}.cls-4{fill:#888a8d;}.cls-5{fill:#53555a;}</style>
  </defs>
  <path class="cls-2" d="m899.54,334.09v11.23h6.02v-11.23h-6.02Z"></path>
  <path class="cls-1" d="m902.6,336.62l-1.94-1.58c-4.13-3.36-24.86-20.55-27.4-28.94-2.88-9.52,2.53-19.61,12.05-22.48,6.11-1.84,12.67-.29,17.29,3.86,4.62-4.16,11.17-5.73,17.29-3.86h0c9.52,2.88,14.93,12.96,12.05,22.48-2.54,8.39-23.27,25.58-27.4,28.94l-1.94,1.58Zm-12.08-47.62c-1.14,0-2.3.16-3.43.5-6.27,1.9-9.83,8.54-7.94,14.82,1.44,4.75,14.41,16.79,23.45,24.34,9.05-7.55,22.02-19.59,23.45-24.34,1.89-6.27-1.67-12.92-7.94-14.82h0c-4.81-1.45-10.06.3-13.03,4.36l-2.48,3.39-2.48-3.39c-2.28-3.11-5.88-4.86-9.6-4.86Z"></path>
  <path class="cls-1" d="m60.17,534.55h28.44c1.28,11.5,8.79,16.3,22.37,16.3,9.27,0,18.38-3.36,18.38-11.99,0-9.11-9.27-11.03-24.93-14.86-19.82-4.63-40.75-10.71-40.75-34.68s19.82-35.16,45.38-35.16,43.95,11.18,45.06,35.16h-27.64c-1.11-8.79-7.83-13.74-18.37-13.74-9.91,0-16.46,4.31-16.46,10.71,0,7.99,8.79,9.91,25.89,13.74,21.25,4.95,40.43,11.51,40.43,35.96s-20.45,37.23-46.82,37.23c-30.37,0-50.33-13.42-50.98-38.67Zm104.67-20.93c0-34.2,21.9-59.6,56.41-59.6s56.57,25.41,56.57,59.6-21.9,59.6-56.57,59.6-56.41-25.41-56.41-59.6Zm84.22,0c0-20.77-9.11-36.75-27.64-36.75s-27.81,15.98-27.81,36.75,9.43,36.59,27.81,36.59,27.64-15.82,27.64-36.59Zm39.79-57.37h28.28v90.29h51.3v23.97h-79.58v-114.26Zm87.09,73.99v-73.99h28.29v74.94c0,11.19,5.75,18.7,19.65,18.7,13.1,0,19.33-7.99,19.33-19.18v-74.47h28.29v73.99c0,26.37-15.82,42.35-47.62,42.35s-47.94-15.66-47.94-42.35Zm138.55-50.02h-33.24v-23.97h95.08v23.97h-33.55v90.29h-28.29v-90.29Zm72.55-23.97h28.29v114.26h-28.29v-114.26Zm39.31,57.37c0-34.2,21.9-59.6,56.41-59.6s56.57,25.41,56.57,59.6-21.9,59.6-56.57,59.6-56.41-25.41-56.41-59.6Zm84.22,0c0-20.77-9.11-36.75-27.64-36.75s-27.81,15.98-27.81,36.75,9.43,36.59,27.81,36.59,27.64-15.82,27.64-36.59Zm39.79-57.37h28.44l33.88,57.37c1.75,3.2,7.83,14.54,7.83,14.54h.32s-.32-13.74-.32-17.74v-54.17h27.64v114.26h-28.44l-33.55-56.57c-1.92-3.04-8.15-15.34-8.15-15.34h-.32s.32,14.7.32,18.7v53.21h-27.65v-114.26Zm108.03,78.3h28.44c1.28,11.5,8.79,16.3,22.37,16.3,9.27,0,18.38-3.36,18.38-11.99,0-9.11-9.27-11.03-24.93-14.86-19.82-4.63-40.75-10.71-40.75-34.68s19.82-35.16,45.38-35.16,43.95,11.18,45.06,35.16h-27.64c-1.11-8.79-7.83-13.74-18.37-13.74-9.91,0-16.46,4.31-16.46,10.71,0,7.99,8.79,9.91,25.89,13.74,21.25,4.95,40.43,11.51,40.43,35.96s-20.45,37.23-46.82,37.23c-30.37,0-50.33-13.42-50.98-38.67Z"></path>
  <path class="cls-1" d="m951.8,373.95c-2.14-2.14-5.03-3.69-8.3-4.07-4.39-15.26-18.47-26.39-35.07-26.39h-11.72c-10.06,0-19.22,4.12-25.86,10.71-4.28,4.28-7.5,9.64-9.21,15.69-3.27.37-6.16,1.93-8.35,4.07-2.62,2.68-4.28,6.32-4.28,10.33,0,7.87,6.21,14.24,13.97,14.56,5.51,13.22,18.52,22.43,33.73,22.43h11.72c10.12,0,19.22-4.07,25.86-10.71,3.32-3.32,6-7.28,7.82-11.72,7.76-.27,13.97-6.69,13.97-14.56,0-4.02-1.61-7.66-4.28-10.33Zm-12.53,11.51c-.37,3.11-1.39,6.05-2.78,8.73-.05.32-.21.54-.37.75-4.07,8.99-13.12,15.26-23.66,15.26h-19.75c-10.49,0-19.54-6.26-23.66-15.26-.11-.21-.27-.43-.37-.75-1.39-2.68-2.36-5.62-2.73-8.73-.16-1.23-.27-2.41-.27-3.69s.11-2.46.27-3.69c1.77-13.33,13.22-23.66,27.09-23.66h19.17c13.87,0,25.32,10.33,27.09,23.66.16,1.23.27,2.46.27,3.69s-.11,2.46-.27,3.69Z"></path>
  <path class="cls-1" d="m887.19,375.99c-2.43,0-4.36,1.93-4.36,4.37s1.93,4.36,4.36,4.36,4.37-1.97,4.37-4.36-1.97-4.37-4.37-4.37Z"></path>
  <path class="cls-1" d="m917.95,375.99c-2.39,0-4.36,1.93-4.36,4.37s1.97,4.36,4.36,4.36,4.36-1.97,4.36-4.36-1.93-4.37-4.36-4.37Z"></path>
  <path class="cls-1" d="m910.52,389.67c-.8-.38-1.76-.04-2.18.76-.55,1.13-1.47,2.01-2.64,2.6-.92.46-2.01.71-3.15.71s-2.18-.25-3.11-.71c-1.18-.59-2.1-1.47-2.64-2.6-.42-.8-1.39-1.13-2.18-.76s-1.13,1.34-.76,2.14c.21.42.46.84.76,1.22,1.68,2.43,4.66,3.95,7.93,3.95s6.3-1.51,7.97-3.95c.29-.38.55-.8.76-1.22.38-.8.04-1.76-.76-2.14Z"></path>
  <g>
    <path class="cls-5" d="m65.57,624.91h14.47c4.01,0,6.69,1.03,8.65,2.9,1.65,1.59,2.57,3.7,2.57,6.46,0,6.17-3.97,9.54-11.69,9.54h-10.55v14.55h-3.45v-33.45Zm13.74,16.23c5.97,0,8.44-2.57,8.44-6.78s-2.83-6.69-8.13-6.69h-10.6v13.47h10.29Z"></path>
    <path class="cls-5" d="m104.49,624.91h16.42c6.64,0,10.45,3.46,10.45,9.03,0,4.12-1.96,6.83-6.18,8.05v.14c3.81,1.17,5.05,3.7,5.3,8.89.26,5.38.93,6.74,1.6,7.16v.19h-3.71c-.82-.51-1.03-1.78-1.34-7.48-.31-5.8-2.52-7.44-7.87-7.44h-11.22v14.92h-3.45v-33.45Zm15.24,15.86c5.35,0,8.08-2.39,8.08-6.55s-2.06-6.55-7.62-6.55h-12.25v13.1h11.79Z"></path>
    <path class="cls-5" d="m145.72,624.91h25.02v2.76h-21.57v12.02h19.77v2.71h-19.77v13.05h22.14v2.9h-25.59v-33.45Z"></path>
    <path class="cls-5" d="m185.25,624.91h13.08c10.86,0,15.75,6.92,15.75,16.84s-5.25,16.61-16.11,16.61h-12.71v-33.45Zm12.61,30.69c8.8,0,12.61-5.38,12.61-13.85s-3.45-14.08-12.25-14.08h-9.52v27.93h9.16Z"></path>
    <path class="cls-5" d="m228.13,624.91h3.45v33.45h-3.45v-33.45Z"></path>
    <path class="cls-5" d="m245.68,641.65c0-10.11,6.33-17.45,16.73-17.45,7.77,0,12.92,3.93,14.16,10.15h-3.4c-.98-4.35-4.79-7.44-10.81-7.44-8.65,0-13.08,6.5-13.08,14.74s4.58,14.55,13.02,14.55c7.11,0,10.96-4.49,11.53-10.01h3.35c-.21,3.27-1.6,6.55-3.81,8.75-2.57,2.62-6.43,4.02-11.12,4.02-10.24,0-16.58-7.06-16.58-17.31Z"></path>
    <path class="cls-5" d="m299.32,627.71h-12.46v-2.81h28.31v2.81h-12.4v30.64h-3.45v-30.64Z"></path>
    <path class="cls-5" d="m353.57,644.37h-9.37v-2.53h9.37v-8.98h2.88v8.98h9.37v2.53h-9.37v9.08h-2.88v-9.08Z"></path>
    <path class="cls-5" d="m395.73,641.61c0-9.96,6.69-17.4,17.09-17.4s17.19,7.44,17.19,17.4-6.74,17.4-17.19,17.4-17.09-7.44-17.09-17.4Zm30.68,0c0-8.09-4.73-14.59-13.59-14.59s-13.49,6.5-13.49,14.59,4.69,14.6,13.49,14.6,13.59-6.5,13.59-14.6Z"></path>
    <path class="cls-5" d="m443.91,624.91h14.47c4.01,0,6.69,1.03,8.65,2.9,1.65,1.59,2.57,3.7,2.57,6.46,0,6.17-3.97,9.54-11.69,9.54h-10.55v14.55h-3.45v-33.45Zm13.74,16.23c5.97,0,8.44-2.57,8.44-6.78s-2.83-6.69-8.13-6.69h-10.6v13.47h10.29Z"></path>
    <path class="cls-5" d="m492.45,627.71h-12.46v-2.81h28.31v2.81h-12.4v30.64h-3.45v-30.64Z"></path>
    <path class="cls-5" d="m521.48,624.91h3.45v33.45h-3.45v-33.45Z"></path>
    <path class="cls-5" d="m540.48,624.91h4.69l12.71,29.19h.1l12.41-29.19h4.84v33.45h-3.35v-29.14h-.1s-.98,2.67-1.75,4.54l-10.66,24.61h-3.04l-10.76-24.61c-.77-1.73-1.8-4.54-1.8-4.54h-.1v29.14h-3.19v-33.45Z"></path>
    <path class="cls-5" d="m590.72,624.91h3.45v33.45h-3.45v-33.45Z"></path>
    <path class="cls-5" d="m607.76,655.31l22.49-27.6v-.14h-21.1v-2.67h25.27v2.67l-22.65,27.84v.14h23.48v2.81h-27.49v-3.04Z"></path>
    <path class="cls-5" d="m648.99,624.91h25.02v2.76h-21.57v12.02h19.77v2.71h-19.77v13.05h22.14v2.9h-25.59v-33.45Z"></path>
    <path class="cls-5" d="m713.9,644.37h-9.37v-2.53h9.37v-8.98h2.88v8.98h9.37v2.53h-9.37v9.08h-2.88v-9.08Z"></path>
    <path class="cls-5" d="m755.39,647.5h3.45c.36,5.66,4.58,8.84,11.48,8.84,5.4,0,9.42-2.48,9.42-7.02s-3.45-5.85-11.33-7.3c-6.8-1.22-11.58-3.09-11.58-8.93,0-5.33,4.94-8.84,12.3-8.84,8.19,0,12.3,4.02,12.98,9.78h-3.35c-.62-4.73-4.32-7.16-9.58-7.16-5.61,0-9.01,2.43-9.01,6.13,0,3.98,3.39,5.19,9.98,6.31,7.16,1.26,13.08,2.85,13.08,9.87,0,5.94-5.25,9.78-12.98,9.78-9.68,0-14.46-4.96-14.88-11.46Z"></path>
    <path class="cls-5" d="m795.64,641.65c0-10.11,6.33-17.45,16.73-17.45,7.77,0,12.92,3.93,14.16,10.15h-3.4c-.98-4.35-4.79-7.44-10.81-7.44-8.65,0-13.08,6.5-13.08,14.74s4.58,14.55,13.02,14.55c7.11,0,10.96-4.49,11.53-10.01h3.35c-.21,3.27-1.6,6.55-3.81,8.75-2.57,2.62-6.43,4.02-11.12,4.02-10.24,0-16.58-7.06-16.58-17.31Z"></path>
    <path class="cls-5" d="m850.67,624.91h3.91l14,33.45h-3.71l-4.27-10.53h-16.01l-4.33,10.53h-3.5l13.9-33.45Zm8.91,20.35l-5.05-12.49c-.77-1.87-1.85-4.87-1.85-4.87h-.1s-.98,2.85-1.8,4.87l-5.15,12.49h13.95Z"></path>
    <path class="cls-5" d="m881.04,624.91h3.45v30.55h19.61v2.9h-23.06v-33.45Z"></path>
    <path class="cls-5" d="m917.38,624.91h25.02v2.76h-21.57v12.02h19.77v2.71h-19.77v13.05h22.14v2.9h-25.59v-33.45Z"></path>
  </g>
  <g>
    <path class="cls-4" d="m246.38,738.31h16.41l6,21.58c.9,3.1,2.83,11.24,2.83,11.24h.14s1.93-8.13,2.76-11.24l6.07-21.58h16.55v49.29h-11.17v-24.82c0-2,.21-9.86.21-9.86h-.14s-1.72,7.38-2.27,9.17l-7.1,25.51h-10.07l-7.03-25.44c-.55-1.79-2.27-9.24-2.27-9.24h-.14s.21,7.93.21,9.93v24.75h-10.96v-49.29Z"></path>
    <path class="cls-4" d="m306.71,738.31h12.2v49.29h-12.2v-49.29Z"></path>
    <path class="cls-4" d="m328.43,738.31h12.2v38.95h22.13v10.34h-34.33v-49.29Z"></path>
    <path class="cls-4" d="m366.42,763.05c0-14.75,9.44-25.71,24.33-25.71s24.4,10.96,24.4,25.71-9.44,25.71-24.4,25.71-24.33-10.96-24.33-25.71Zm36.33,0c0-8.96-3.93-15.86-11.93-15.86s-11.99,6.89-11.99,15.86,4.07,15.79,11.99,15.79,11.93-6.82,11.93-15.79Z"></path>
    <path class="cls-4" d="m436.2,738.31h12.2v49.29h-12.2v-49.29Z"></path>
    <path class="cls-4" d="m457.92,738.31h12.27l14.61,24.75c.76,1.38,3.38,6.27,3.38,6.27h.14s-.14-5.93-.14-7.65v-23.37h11.93v49.29h-12.27l-14.48-24.4c-.83-1.31-3.52-6.62-3.52-6.62h-.14s.14,6.34.14,8.07v22.96h-11.93v-49.29Z"></path>
    <path class="cls-4" d="m521.76,748.65h-14.34v-10.34h41.02v10.34h-14.48v38.95h-12.2v-38.95Z"></path>
    <path class="cls-4" d="m555.75,738.31h37.37v10.06h-25.16v8.82h21.58v9.51h-21.58v10.55h25.58v10.34h-37.78v-49.29Z"></path>
    <path class="cls-4" d="m601.81,738.31h12.2v38.95h22.13v10.34h-34.33v-49.29Z"></path>
    <path class="cls-4" d="m643.52,738.31h12.2v38.95h22.13v10.34h-34.33v-49.29Z"></path>
    <path class="cls-4" d="m685.31,738.31h12.2v49.29h-12.2v-49.29Z"></path>
    <path class="cls-4" d="m711.71,781.81c-4.27-4.69-6.62-11.17-6.62-18.68s2.62-14.55,7.31-19.23c4.07-4.14,9.79-6.55,16.89-6.55,12.68,0,20.27,6.76,21.85,17.1h-11.85c-.9-4-4.21-7.03-9.58-7.03-8.13,0-12.2,6.76-12.2,15.72s4.69,15.72,12.41,15.72c6.41,0,10.2-4.27,10.69-8.62v-.14h-9.24v-8.96h20.54v26.47h-8.55l-.69-5.93h-.14c-3.24,5.03-8.07,7.03-14,7.03-7.03,0-12.75-2.48-16.82-6.89Z"></path>
    <path class="cls-4" d="m760.6,738.31h37.37v10.06h-25.16v8.82h21.58v9.51h-21.58v10.55h25.58v10.34h-37.78v-49.29Z"></path>
    <path class="cls-4" d="m806.65,738.31h12.27l14.61,24.75c.76,1.38,3.38,6.27,3.38,6.27h.14s-.14-5.93-.14-7.65v-23.37h11.93v49.29h-12.27l-14.48-24.4c-.83-1.31-3.52-6.62-3.52-6.62h-.14s.14,6.34.14,8.07v22.96h-11.93v-49.29Z"></path>
    <path class="cls-4" d="m856.37,763.12c0-14.68,9.58-25.78,24.27-25.78,5.72,0,10.55,1.65,14.06,4.34,4.28,3.24,6.76,8.07,7.38,13.58h-12.2c-.62-4.41-4.07-7.79-9.31-7.79-8,0-11.79,6.69-11.79,15.65s4.55,15.58,11.86,15.58c5.44,0,9.03-3.45,9.58-8.2h12.2c-.35,4.89-2.55,9.38-5.93,12.62-3.79,3.65-8.82,5.58-15.79,5.58-14.48,0-24.33-10.82-24.33-25.58Z"></path>
    <path class="cls-4" d="m909.52,738.31h37.37v10.06h-25.16v8.82h21.58v9.51h-21.58v10.55h25.58v10.34h-37.78v-49.29Z"></path>
  </g>
  <path class="cls-3" d="m207.68,769.39h-103.2c-21.08,0-38.24-17.15-38.24-38.24v-33.46c0-2.35,1.9-4.25,4.25-4.25s4.25,1.9,4.25,4.25v33.46c0,16.4,13.34,29.74,29.74,29.74h103.2c2.35,0,4.25,1.9,4.25,4.25s-1.9,4.25-4.25,4.25Z"></path>
  <g>
    <path class="cls-1" d="m703.64,217.43c-11.17-85.68-72.49-146.43-164.46-146.43-99.86,0-163.76,72.41-165.72,170.57v.48c-.04,1.4-.04,2.79-.04,4.19,0,100.52,64.33,175.19,165.76,175.19s166.29-74.68,166.29-175.19c0-9.86-.61-19.47-1.83-28.81Zm-163.98,136.35c-53.95,0-81.62-46.35-81.7-107.32v-.22c0-1.31,0-2.62.04-3.93,1.18-59.14,28.85-104.14,81.66-104.14s80.09,45,81.22,104.14c.04,1.31.04,2.62.04,3.93,0,8.03-.48,15.84-1.44,23.31-6.11,49.23-32.52,84.24-79.83,84.24Zm198.69-276.18h83.14v335.83h-83.14V77.6Zm-396.54,250.42c-.04-.59-.13-1.23-.21-1.83-.3-2.59-.72-5.14-1.1-7.73-4.67-33.35-19.71-51.67-48.82-61.52l-2.25-.72,2.25-.68c3.23-1.15,6.29-2.38,9.18-3.7,32.84-14.74,49.07-41.85,49.07-77.58,0-1.4-.04-2.76-.09-4.12v-.09c-.34-9.31-1.83-17.97-4.42-25.96-.34-1.1-.72-2.25-1.15-3.31-9.94-27.53-32.67-46.57-62.71-56.13-2.89-.93-5.82-1.74-8.84-2.51-3.23-.77-6.5-1.49-9.9-2.04-9.6-1.74-19.76-2.59-30.34-2.59H71.89v335.83h83.11v-125.85h50.26c35.69,0,51.67,16.87,55.91,47.88.55,3.61,1.02,7.31,1.44,11,.09.64.13,1.27.21,1.91,3.31,29.87,3.23,60.5,11,65.05h80.77v-4.21c-10.88-3.95-7.61-40.62-12.79-81.11Zm-124.36-102.1h-62.46v-82.64h64.37c29.87,0,45.8,15.21,47.71,37.18v.13c.13,1.49.17,2.97.17,4.5,0,25.37-16.91,40.83-49.8,40.83Z"></path>
    <path class="cls-2" d="m738.34,77.59v86.94c20.21,9.03,42.38,14.01,65.6,14.01,5.94,0,11.78-.31,17.55-.96v-99.99h-83.14Zm-34.7,139.84c-11.17-85.68-72.49-146.43-164.46-146.43-99.86,0-163.76,72.41-165.72,170.57v.61c.44,23.22,4.41,45,11.48,64.73,26.8-15.84,51.37-35.61,73.06-58.53-.04-.65-.04-1.27-.04-1.92v-.22c0-1.31,0-2.62.04-3.93v-.57c-.04-1.31-.04-2.66-.04-4.02v-.22c0-1.31,0-2.62.04-3.93,1.18-59.14,28.85-104.14,81.66-104.14s80.09,45,81.22,104.14c.04,1.31.04,2.62.04,3.93,0,1.44,0,2.84-.04,4.23v.57c.04,1.31.04,2.62.04,3.93,0,8.03-.48,15.84-1.44,23.31-.09.65-.17,1.35-.26,2.01,32.82-8.38,61.98-26.89,84.63-52.33-.04-.61-.13-1.18-.22-1.79Zm-402.79,25.7c31.36-14.11,47.59-39.47,48.99-72.99v-.09c-.34-9.31-1.83-17.97-4.42-25.96-.34-1.1-.72-2.25-1.15-3.31-9.94-27.53-32.67-46.57-62.71-56.13-2.89-.93-5.82-1.74-8.84-2.51-3.23-.77-6.5-1.49-9.9-2.04-9.6-1.74-19.76-2.59-30.34-2.59H71.89v231.3c25.88,14.87,53.75,26.13,83.11,33.18v-63.26h50.26c35.69,0,51.67,16.91,55.91,47.88.55,3.61,1.02,7.35,1.44,11.05.38,3.53.77,7.01,1.06,10.54,27.19-3.36,53.41-10.2,78.14-20.18-.04-.59-.13-1.23-.21-1.83-.3-2.59-.72-5.14-1.1-7.73-4.67-33.35-19.71-51.67-48.82-61.52l-2.25-.72c-7.45-2.57-13.64-4.25-13.64-4.25,4.93-1.27,9.81-2.89,14.57-4.67,3.53-1.32,7.05-2.63,10.49-4.16Zm-33.61-58.04c0,25.37-16.91,40.83-49.8,40.83h-62.46v-91.39h64.37c29.87,0,45.8,15.25,47.71,37.22v.13c.13,1.44.17,2.93.17,4.46,0,1.4-.04,2.76-.17,4.12v.13c.13,1.49.17,2.97.17,4.5Z"></path>
  </g>
</svg>
